<?xml version="1.0" encoding="UTF-8" standalone="no"?><!DOCTYPE svg PUBLIC "-//W3C//DTD SVG 1.1//EN" "http://www.w3.org/Graphics/SVG/1.1/DTD/svg11.dtd"><svg width="100%" height="100%" viewBox="0 0 8 8" version="1.1" xmlns="http://www.w3.org/2000/svg" xmlns:xlink="http://www.w3.org/1999/xlink" xml:space="preserve" xmlns:serif="http://www.serif.com/" style="fill-rule:evenodd;clip-rule:evenodd;stroke-linejoin:round;stroke-miterlimit:2;"><rect x="0" y="0" width="7.68" height="7.68" style="fill:#fff;"/><g><path d="M2.496,4.148l-1.48,0l0,1.825l-0.158,0l0,-4.266l1.359,0c0.428,0 0.769,0.111 1.021,0.331c0.253,0.221 0.38,0.521 0.38,0.9c0,0.291 -0.091,0.545 -0.271,0.763c-0.181,0.218 -0.411,0.353 -0.69,0.406l1.14,1.825l0,0.041l-0.167,0l-1.134,-1.825Zm-1.48,-0.159l1.345,0c0.328,0 0.593,-0.099 0.795,-0.298c0.203,-0.2 0.304,-0.451 0.304,-0.753c0,-0.332 -0.112,-0.594 -0.336,-0.785c-0.223,-0.192 -0.53,-0.288 -0.918,-0.288l-1.19,0l0,2.124Z" style="fill-rule:nonzero;"/><path d="M5.134,4.209l1.495,-2.502l0.193,0l-1.608,2.646l0,1.62l-0.159,0l0,-1.62l-1.608,-2.646l0.211,0l1.476,2.502Z" style="fill-rule:nonzero;"/></g></svg>