<?xml version="1.0" standalone="no"?>
<!DOCTYPE svg PUBLIC "-//W3C//DTD SVG 20010904//EN"
 "http://www.w3.org/TR/2001/REC-SVG-20010904/DTD/svg10.dtd">
<svg version="1.0" xmlns="http://www.w3.org/2000/svg"
 width="700.000000pt" height="700.000000pt" viewBox="0 0 700.000000 700.000000"
 preserveAspectRatio="xMidYMid meet">
<metadata>
Created by potrace 1.11, written by Peter Selinger 2001-2013
</metadata>
<g transform="translate(0.000000,700.000000) scale(0.100000,-0.100000)"
fill="#000000" stroke="none">
<path d="M2818 6425 c-2 -1 -56 -5 -120 -9 -65 -3 -123 -8 -130 -11 -7 -2 -31
-6 -53 -9 -110 -14 -280 -66 -395 -122 -216 -104 -396 -272 -547 -510 -9 -15
-12 43 -12 274 l-1 292 -315 0 -315 0 0 -650 c-1 -826 -1 -1682 0 -2518 l0
-658 313 1 312 0 2 70 c2 39 4 549 7 1135 2 586 6 1083 10 1105 18 113 51 258
77 339 32 96 112 259 157 316 137 175 300 288 497 344 81 22 114 29 203 42 15
2 81 4 148 4 176 2 349 -32 466 -91 21 -11 40 -19 43 -19 3 0 5 144 4 319 l-1
320 -41 6 c-23 4 -51 9 -61 11 -10 2 -58 6 -105 10 -47 3 -98 7 -113 9 -15 1
-29 1 -30 0z"/>
<path d="M3638 6332 c-137 -1 -248 -6 -248 -11 0 -4 6 -21 14 -37 8 -16 40
-92 71 -169 31 -77 63 -153 70 -170 7 -16 32 -77 55 -135 23 -58 48 -118 55
-135 16 -37 53 -128 150 -365 42 -102 100 -243 130 -315 78 -189 78 -190 80
-195 1 -3 7 -17 13 -32 6 -15 27 -67 47 -115 20 -48 42 -101 50 -118 7 -16 32
-77 55 -135 23 -58 52 -130 65 -160 14 -30 92 -221 176 -425 83 -203 186 -455
229 -560 43 -104 117 -284 164 -400 47 -115 93 -225 101 -243 8 -18 15 -38 15
-45 0 -13 -145 -386 -177 -457 -164 -361 -250 -458 -460 -516 -45 -12 -115
-17 -308 -18 l-250 -3 -3 -261 -2 -262 22 -1 c71 -3 602 1 625 5 15 3 53 8 83
11 90 11 220 53 315 103 163 85 307 252 445 515 79 150 127 260 275 629 69
172 130 322 135 333 5 11 49 121 99 245 49 124 178 446 286 715 109 270 224
558 257 640 33 83 66 163 74 179 8 16 14 33 14 38 0 5 9 28 19 51 10 23 109
267 219 542 110 275 246 612 301 750 l101 250 0 137 0 138 -278 0 -278 0 -79
-197 c-43 -109 -84 -211 -91 -228 -7 -16 -121 -302 -254 -635 -132 -333 -245
-614 -250 -625 -5 -11 -111 -276 -235 -590 -125 -313 -235 -589 -245 -611 -11
-23 -22 -54 -26 -68 -3 -14 -9 -26 -13 -26 -6 0 -184 433 -237 575 -6 17 -43
109 -82 205 -39 96 -186 465 -327 820 -142 355 -265 663 -274 685 -10 22 -76
186 -146 365 -71 179 -130 326 -130 327 -3 6 -187 8 -417 5z"/>
</g>
</svg>
